# AST/ASF file generated using VICON BodyLanguage
# -----------------------------------------------
:version 1.10
:name VICON
:units
  mass 1.0
  length 0.45
  angle deg
:documentation
   .ast/.asf automatically generated from VICON data using
   VICON BodyBuilder and BodyLanguage model FoxedUp or BRILLIANT.MOD
:root
   order TX TY TZ RX RY RZ
   axis XYZ
   position 0 0 0  
   orientation 0 0 0 
:bonedata
  begin
     id 1 
     name lhipjoint
     direction 0.610259 -0.730986 0.305356 
     length 2.50941 
     axis 0 0 0  XYZ
  end
  begin
     id 2 
     name lfemur
     direction 0.34202 -0.939693 0  
     length 7.48822  
     axis 0 0 20  XYZ
    dof rx ry rz
    limits (-160.0 20.0)
           (-70.0 70.0)
           (-60.0 70.0)
  end
  begin
     id 3 
     name ltibia
     direction 0.34202 -0.939693 0   
     length 7.60141   
     axis 0 0 20   XYZ
    dof rx
    limits (-10.0 170.0)
  end
  begin
     id 4 
     name lfoot
     direction 0.0673488 -0.185039 0.980421   
     length 2.04049   
     axis -90 7.62852e-016 20   XYZ
    dof rx rz
    limits (-45.0 90.0)
           (-70.0 20.0)
  end
  begin
     id 5 
     name ltoes
     direction 1.5356e-011 -4.21729e-011 1   
     length 1.02897   
     axis -90 7.62852e-016 20   XYZ
    dof rx
    limits (-90.0 20.0)
  end
  begin
     id 6 
     name rhipjoint
     direction -0.57612 -0.754205 0.315056   
     length 2.43216  
     axis 0 0 0  XYZ 
  end
  begin
     id 7 
     name rfemur
     direction -0.34202 -0.939693 0   
     length 7.42799   
     axis 0 0 -20   XYZ
    dof rx ry rz
    limits (-160.0 20.0)
           (-70.0 70.0)
           (-70.0 60.0)
  end
  begin
     id 8 
     name rtibia
     direction -0.34202 -0.939693 0   
     length 7.69484   
     axis 0 0 -20   XYZ
    dof rx
    limits (-10.0 170.0)
 end
 begin
     id 9 
     name rfoot
     direction -0.111837 -0.30727 0.945028   
     length 2.15769  
     axis -90 -7.62852e-016 -20   XYZ
    dof rx rz
    limits (-45.0 90.0)
           (-20.0 70.0)
  end
  begin
     id 10 
     name rtoes
     direction -1.53539e-011 -4.21878e-011 1   
     length 1.07391   
     axis -90 -7.62852e-016 -20   XYZ
    dof rx
    limits (-90.0 20.0)
  end
  begin
     id 11 
     name lowerback
     direction 0.00552624 0.990109 -0.140195   
     length 2.12403   
     axis 0 0 0   XYZ
    dof rx ry rz
    limits (-20.0 45.0)
           (-30.0 30.0)
           (-30.0 30.0)
  end
  begin
     id 12 
     name upperback
     direction 0.00361898 0.999976 -0.00584723   
     length 2.13232   
     axis 0 0 0   XYZ
    dof rx ry rz
    limits (-20.0 45.0)
           (-30.0 30.0)
           (-30.0 30.0)
  end
  begin
     id 13 
     name thorax
     direction -0.000331275 0.998253 0.0590847   
     length 2.17688   
     axis 0 0 0   XYZ
    dof rx ry rz
    limits (-20.0 45.0)
           (-30.0 30.0)
           (-30.0 30.0)
  end
  begin
     id 14 
     name lowerneck
     direction -0.0561561 0.979832 0.19177   
     length 1.64159   
     axis 0 0 0   XYZ
    dof rx ry rz
    limits (-20.0 45.0)
           (-30.0 30.0)
           (-30.0 30.0)
  end
  begin
     id 15 
     name upperneck
     direction 0.0827153 0.979385 -0.184293   
     length 1.68939   
     axis 0 0 0   XYZ
    dof rx ry rz
    limits (-20.0 45.0)
           (-30.0 30.0)
           (-30.0 30.0)
  end
  begin
     id 16
     name head
     direction 0.0278583 0.995936 -0.0856488  
     length 1.70207  
     axis 0 0 0   XYZ
    dof rx ry rz
    limits (-20.0 45.0)
           (-30.0 30.0)
           (-30.0 30.0)
  end
  begin
     id 17 
     name lclavicle
     direction 0.950993 0.301131 -0.0702275  
     length 3.41652  
     axis 0 0 0   XYZ
    dof ry rz
    limits (-20.0 10.0)
           (0.0 20.0)
  end
  begin
     id 18 
     name lhumerus
     direction 1 -4.48981e-011 -3.9662e-029   
     length 5.32955   
     axis 180 -30 -90   XYZ
    dof rx ry rz
    limits (-60.0 90.0)
           (-90.0 90.0)
           (-90.0 90.0)
  end
  begin
     id 19
     name lradius
     direction 1 -4.48925e-011 -9.0549e-027   
     length 3.69232   
     axis 180 -30 -90   XYZ
    dof rx
    limits (-10.0 170.0)
  end
  begin
     id 20
     name lwrist
     direction 1 -4.49007e-011 -1.49005e-026   
     length 1.84616   
     axis 9.0955e-015 90 90   XYZ
    dof ry
    limits (-180.0 0.0)
 end
  begin
     id 21 
     name lhand
     direction 1 -4.49016e-011 -2.98023e-026   
     length 0.536598   
     axis 1.90115e-014 90 90   XYZ
    dof rx rz
    limits (-90.0 90.0)
           (-45.0 45.0)
  end
  begin
     id 22 
     name lfingers
     direction 1 -4.48924e-011 -5.9578e-026   
     length 0.432619   
     axis 3.80223e-014 90 90   XYZ
    dof rx
    limits (0.0 90.0)
  end
  begin
     id 23
     name lthumb
     direction 0.707107 -6.34947e-011 0.707107   
     length 0.621157   
     axis -90 45 -3.84942e-014   XYZ
    dof rx rz
    limits (-45.0 45.0)
           (-45.0 45.0)
  end
  begin
     id 24 
     name rclavicle
     direction -0.955495 0.276497 -0.102848   
     length 3.36357  
     axis 0 0 0   XYZ 
    dof ry rz
    limits (-10.0 20.0)
           (-20.0 0.0)
  end
  begin
     id 25 
     name rhumerus
     direction -1 -4.48961e-011 3.30983e-027  
     length 5.23431   
     axis 180 30 90   XYZ
    dof rx ry rz
    limits (-90.0 60.0)
           (-90.0 90.0)
           (-90.0 90.0)
  end
  begin
     id 26 
     name rradius
     direction -1 -4.48965e-011 -6.63263e-027   
     length 3.55301   
     axis 180 30 90   XYZ
    dof rx
    limits (-10.0 170.0)
  end
  begin
     id 27 
     name rwrist
     direction -1 -4.48942e-011 -1.48958e-026   
     length 1.77651   
     axis 9.0955e-015 -90 -90   XYZ
    dof ry
    limits (-180.0 0.0)
  end
  begin
     id 28
     name rhand
     direction -1 -4.48977e-011 -2.97966e-026   
     length 0.772522   
     axis 1.90115e-014 -90 -90   XYZ
    dof rx rz
    limits (-90.0 90.0)
           (-45.0 45.0)
  end
  begin
     id 29
     name rfingers
     direction -1 -4.49135e-011 -5.96389e-026   
     length 0.622827   
     axis 3.80223e-014 -90 -90   XYZ
    dof rx
    limits (0.0 90.0)
  end
  begin
     id 30
     name rthumb
     direction -0.707107 -6.34969e-011 0.707107   
     length 0.894259   
     axis -90 -45 3.84942e-014   XYZ
    dof rx rz
    limits (-45.0 45.0)
           (-45.0 45.0)
  end
:hierarchy
  begin
    root lhipjoint rhipjoint lowerback
    lhipjoint lfemur
    lfemur ltibia
    ltibia lfoot
    lfoot ltoes
    rhipjoint rfemur
    rfemur rtibia
    rtibia rfoot
    rfoot rtoes
    lowerback upperback
    upperback thorax
    thorax lowerneck lclavicle rclavicle
    lowerneck upperneck
    upperneck head
    lclavicle lhumerus
    lhumerus lradius
    lradius lwrist
    lwrist lhand lthumb
    lhand lfingers
    rclavicle rhumerus
    rhumerus rradius
    rradius rwrist
    rwrist rhand rthumb
    rhand rfingers
  end

#!OML:ASF F:\VICON\USERDATA\INSTALL\rory3\rory3.ASF
:FULLY-SPECIFIED
:DEGREES
40
root 9.8494 17.7593 -24.3122 -182.284 -1.39339 180.177
lowerback 12.2741 2.15854 0.270781
upperback 1.7779 2.75478 0.80316
thorax -5.03721 1.27616 0.243661
lowerneck -22.3489 -3.02754 -12.6048
upperneck 30.5665 -3.34868 7.29047
head 14.6495 -2.34864 4.42946
rclavicle -5.91384e-015 -1.19271e-015
rhumerus -31.0207 -7.59884 -81.7231
rradius 31.5634
rwrist 7.5841
rhand -13.8396 8.49624
rfingers 7.12502
rthumb 12.2838 -21.123
lclavicle -5.91384e-015 -1.19271e-015
lhumerus -28.2915 3.60242 86.0253
lradius 28.4108
lwrist -6.86217
lhand -16.9633 27.4395
lfingers 7.12502
lthumb 9.27073 57.2157
rfemur -12.8424 -3.19399 20.4736
rtibia 33.0042
rfoot -15.5195 -1.85614
rtoes -4.23873
lfemur -11.0128 -5.38286 -21.5729
ltibia 27.1015
lfoot -8.88879 -1.63301
ltoes 2.15501
41
root 9.84359 17.7555 -24.28 -182.387 -0.923863 180.198
lowerback 11.9948 2.24726 0.282354
upperback 2.1224 2.84652 0.886037
thorax -4.52555 1.31278 0.327227
lowerneck -22.6098 -2.84702 -12.0971
upperneck 30.3337 -2.96799 6.71512
head 14.5329 -2.17348 4.16697
rclavicle -1.37658e-014 -5.1684e-015
rhumerus -30.4393 -7.11425 -81.65
rradius 31.7733
rwrist 7.21467
rhand -13.8769 8.47859
rfingers 7.12502
rthumb 12.2478 -21.1428
lclavicle -1.37658e-014 -5.1684e-015
lhumerus -27.9599 3.86899 86.1361
lradius 28.2366
lwrist -6.78955
lhand -16.6501 27.7544
lfingers 7.12502
lthumb 9.57294 57.5169
rfemur -12.9619 -3.42029 20.4633
rtibia 33.078
rfoot -16.1289 -1.34136
rtoes -3.83201
lfemur -10.9543 -5.1275 -21.5689
ltibia 27.0653
lfoot -8.90608 -1.37485
ltoes -1.33622
42
root 9.84084 17.7502 -24.2489 -182.588 -0.405921 180.291
lowerback 11.9555 2.33041 0.283537
upperback 2.34435 2.93914 1.04158
thorax -4.28032 1.35031 0.481098
lowerneck -22.8087 -2.63313 -11.5588
upperneck 30.3594 -2.56001 5.96069
head 14.5181 -2.0357 3.83601
rclavicle 1.67973e-014 5.96354e-015
rhumerus -29.9902 -7.08552 -81.3905
rradius 31.6772
rwrist 7.63889
rhand -13.7479 8.58163
rfingers 7.12502
rthumb 12.3722 -21.0323
lclavicle 1.67973e-014 5.96354e-015
lhumerus -27.9367 4.1101 86.3081
lradius 28.0695
lwrist -6.71543
lhand -16.5216 27.5908
lfingers 7.12502
lthumb 9.69696 57.3476
rfemur -12.9584 -3.4464 20.5564
rtibia 33.1756
rfoot -15.5904 -0.887557
rtoes -4.33465
lfemur -10.7485 -4.91272 -21.4576
ltibia 26.947
lfoot -8.84563 -1.10497
ltoes -3.37197
43
root 9.83352 17.7445 -24.2173 -182.74 0.199657 180.445
lowerback 12.1779 2.10393 0.359232
upperback 2.29647 3.14632 1.14995
thorax -4.45852 1.66135 0.492843
lowerneck -22.5812 -2.47806 -11.3891
upperneck 30.4949 -2.38651 5.70047
head 14.5019 -2.00093 3.7301
rclavicle 5.86415e-015 1.19271e-014
rhumerus -29.9474 -6.91332 -81.1675
rradius 31.6618
rwrist 7.78598
rhand -13.822 8.51067
rfingers 7.12502
rthumb 12.3007 -21.1075
lclavicle 5.86415e-015 1.19271e-014
lhumerus -28.3597 4.21301 86.4328
lradius 28.0324
lwrist -6.43265
lhand -16.5851 27.3617
lfingers 7.12502
lthumb 9.63562 57.1213
rfemur -13.0297 -3.5114 20.7015
rtibia 33.2951
rfoot -15.5368 -0.294864
rtoes -4.22051
lfemur -10.5225 -4.7843 -21.2549
ltibia 26.7653
lfoot -8.75035 -0.961867
ltoes -2.33238
44
root 9.82547 17.7412 -24.1877 -182.89 0.78535 180.272
lowerback 12.2849 2.21367 0.195499
upperback 2.31478 3.27245 1.14599
thorax -4.50802 1.72599 0.556262
lowerneck -22.3795 -2.44652 -11.3953
upperneck 30.5994 -2.42242 5.74031
head 14.508 -2.03048 3.74053
rclavicle -4.80562e-014 -1.78906e-014
rhumerus -29.8787 -6.57652 -81.0178
rradius 31.8523
rwrist 7.54608
rhand -14.1248 8.53931
rfingers 7.12502
rthumb 12.0088 -21.0962
lclavicle -4.80562e-014 -1.78906e-014
lhumerus -28.64 4.39085 86.5005
lradius 27.9649
lwrist -6.26391
lhand -16.6043 27.4038
lfingers 7.12502
lthumb 9.61716 57.1643
rfemur -13.1055 -3.6035 20.4942
rtibia 33.4279
rfoot -15.5506 0.178289
rtoes -4.51741
lfemur -10.2766 -4.57443 -21.4448
ltibia 26.5252
lfoot -8.60154 -0.902359
ltoes -1.7849
45
root 9.81952 17.7413 -24.1569 -183.009 1.26098 179.924
lowerback 12.4178 2.31309 -0.185457
upperback 2.28361 3.35016 1.11895
thorax -4.63424 1.76731 0.722413
lowerneck -22.1364 -2.37792 -11.3972
upperneck 30.7155 -2.39829 5.72822
head 14.5026 -2.04428 3.7394
rclavicle 3.08116e-015 -1.59028e-014
rhumerus -29.8184 -6.48293 -80.7628
rradius 31.8946
rwrist 7.45634
rhand -14.3495 8.64455
rfingers 7.12502
rthumb 11.7921 -21.0035
lclavicle 3.08116e-015 -1.59028e-014
lhumerus -29.0691 4.51301 86.6139
lradius 28.0026
lwrist -6.32366
lhand -16.4733 27.4082
lfingers 7.12502
lthumb 9.74356 57.1628
rfemur -13.2394 -3.7039 20.1036
rtibia 33.5847
rfoot -15.6555 0.509194
rtoes -4.65563
lfemur -10.0793 -4.4892 -21.8399
ltibia 26.217
lfoot -8.44956 -0.718712
ltoes -2.57335
46
root 9.81597 17.7454 -24.1205 -183.056 1.63963 179.881
lowerback 12.5974 2.30401 -0.296767
upperback 2.1655 3.31749 1.14561
thorax -4.86437 1.74897 0.807077
lowerneck -22.0148 -2.16533 -11.2035
upperneck 30.9871 -2.22606 5.67657
head 14.5714 -1.9867 3.71957
rclavicle -9.44227e-015 1.19271e-015
rhumerus -29.6977 -6.36583 -80.6385
rradius 31.7089
rwrist 7.39024
rhand -14.5295 8.75084
rfingers 7.12502
rthumb 11.6185 -20.9071
lclavicle -9.44227e-015 1.19271e-015
lhumerus -29.5963 4.62863 86.613
lradius 28.0557
lwrist -6.39094
lhand -16.3397 27.2133
lfingers 7.12502
lthumb 9.87241 56.9618
rfemur -13.4673 -3.6454 20.0622
rtibia 33.7635
rfoot -15.8188 0.787628
rtoes -3.98059
lfemur -9.97225 -4.44294 -21.8472
ltibia 25.8522
lfoot -8.32175 -0.62761
ltoes -2.89475
47
root 9.80968 17.748 -24.0789 -183.08 1.90788 179.9
lowerback 12.6496 2.20201 -0.328647
upperback 2.1882 3.18287 1.18409
thorax -4.87048 1.68459 0.886004
lowerneck -22.3068 -1.85628 -10.796
upperneck 31.3044 -1.85797 5.48313
head 14.7275 -1.82676 3.6456
rclavicle -3.10601e-014 -9.14409e-015
rhumerus -29.3419 -6.36747 -80.5405
rradius 31.6328
rwrist 7.52927
rhand -14.6009 8.7213
rfingers 7.12502
rthumb 11.5497 -20.9405
lclavicle -3.10601e-014 -9.14409e-015
lhumerus -29.8719 4.84009 86.6028
lradius 28.1028
lwrist -6.313
lhand -16.5371 27.0033
lfingers 7.12502
lthumb 9.68198 56.7608
rfemur -13.7186 -3.59963 20.0786
rtibia 33.9414
rfoot -15.9909 1.03491
rtoes -3.87088
lfemur -9.89596 -4.40598 -21.7862
ltibia 25.4652
lfoot -8.17903 -0.555152
ltoes -3.52755
48
root 9.79892 17.7454 -24.0393 -183.159 2.00897 179.673
lowerback 12.7187 2.08266 -0.515979
upperback 2.22691 2.99909 1.12897
thorax -4.87006 1.59772 0.962662
lowerneck -22.3317 -1.78845 -10.7534
upperneck 31.5609 -1.88946 5.65059
head 14.8515 -1.83634 3.70754
rclavicle -1.34677e-014 -1.43125e-014
rhumerus -29.09 -6.75514 -80.3394
rradius 31.7049
rwrist 7.97553
rhand -14.4752 8.72249
rfingers 7.12502
rthumb 11.6709 -20.9324
lclavicle -1.34677e-014 -1.43125e-014
lhumerus -30.1516 5.07649 86.573
lradius 28.142
lwrist -6.39284
lhand -16.3416 27.2884
lfingers 7.12502
lthumb 9.87059 57.0371
rfemur -13.8873 -3.79828 19.7947
rtibia 34.1063
rfoot -16.0745 1.32202
rtoes -4.46081
lfemur -9.73578 -4.45498 -22.061
ltibia 25.1219
lfoot -8.0136 -0.400233
ltoes -4.98099
49
root 9.79215 17.7463 -24.0076 -183.363 2.16035 179.444
lowerback 12.9394 1.9968 -0.741641
upperback 2.1978 2.85134 1.08379
thorax -5.02683 1.52811 1.05839
lowerneck -22.1147 -1.61041 -10.4625
upperneck 31.6838 -1.75275 5.46253
head 14.837 -1.79254 3.60176
rclavicle 1.09332e-014 -1.23246e-014
rhumerus -28.9956 -7.19518 -80.097
rradius 31.6733
rwrist 8.57657
rhand -14.3465 8.66117
rfingers 7.12502
rthumb 11.795 -20.9867
lclavicle 1.09332e-014 -1.23246e-014
lhumerus -30.5896 5.33273 86.4964
lradius 28.1094
lwrist -6.88011
lhand -15.5059 27.6017
lfingers 7.12502
lthumb 10.6768 57.3105
rfemur -13.9119 -3.85821 19.5216
rtibia 34.2638
rfoot -16.1304 1.30689
rtoes -5.55754
lfemur -9.41043 -4.48602 -22.3298
ltibia 24.7906
lfoot -7.797 -0.236796
ltoes -4.7648
50
root 9.78782 17.7458 -23.9732 -183.47 2.28735 179.359
lowerback 13.1612 1.8853 -0.880112
upperback 2.11557 2.68058 1.09871
thorax -5.23786 1.44539 1.17218
lowerneck -22.004 -1.40796 -10.2288
upperneck 31.8768 -1.57256 5.34769
head 14.8754 -1.72919 3.54742
rclavicle 1.47101e-014 4.37326e-015
rhumerus -28.985 -7.49901 -79.8957
rradius 31.8841
rwrist 8.72499
rhand -14.1458 8.4054
rfingers 7.12502
rthumb 11.9885 -21.2313
lclavicle 1.47101e-014 4.37326e-015
lhumerus -30.9683 5.40687 86.4821
lradius 28.0292
lwrist -7.35757
lhand -14.7541 28.0169
lfingers 7.12502
lthumb 11.4019 57.6869
rfemur -14.0265 -3.77771 19.4395
rtibia 34.3839
rfoot -16.2043 0.902296
rtoes -7.19993
lfemur -9.26015 -4.4725 -22.4035
ltibia 24.4961
lfoot -7.58464 -0.253456
ltoes -3.96512
